<?xml version="1.0" encoding="UTF-8" standalone="no"?>
<!-- Created with Inkscape (http://www.inkscape.org/) -->

<svg
   xmlns:dc="http://purl.org/dc/elements/1.1/"
   xmlns:cc="http://creativecommons.org/ns#"
   xmlns:rdf="http://www.w3.org/1999/02/22-rdf-syntax-ns#"
   xmlns:svg="http://www.w3.org/2000/svg"
   xmlns="http://www.w3.org/2000/svg"
   xmlns:sodipodi="http://sodipodi.sourceforge.net/DTD/sodipodi-0.dtd"
   xmlns:inkscape="http://www.inkscape.org/namespaces/inkscape"
   width="210mm"
   height="297mm"
   viewBox="0 0 744.09448819 1052.3622047"
   id="svg2"
   version="1.1"
   inkscape:version="0.91 r13725"
   sodipodi:docname="rawr.svg">
  <defs
     id="defs4" />
  <sodipodi:namedview
     id="base"
     pagecolor="#ffffff"
     bordercolor="#666666"
     borderopacity="1.0"
     inkscape:pageopacity="0.0"
     inkscape:pageshadow="2"
     inkscape:zoom="0.35"
     inkscape:cx="-60.714286"
     inkscape:cy="62.857143"
     inkscape:document-units="px"
     inkscape:current-layer="layer1"
     showgrid="false"
     inkscape:window-width="1920"
     inkscape:window-height="1018"
     inkscape:window-x="-8"
     inkscape:window-y="-8"
     inkscape:window-maximized="1" />
  <metadata
     id="metadata7">
    <rdf:RDF>
      <cc:Work
         rdf:about="">
        <dc:format>image/svg+xml</dc:format>
        <dc:type
           rdf:resource="http://purl.org/dc/dcmitype/StillImage" />
        <dc:title></dc:title>
      </cc:Work>
    </rdf:RDF>
  </metadata>
  <g
     inkscape:label="Layer 1"
     inkscape:groupmode="layer"
     id="layer1">
    <path
       style="fill:#000000"
       d="m -64.434029,983.76063 c -2.2494,-3.2114 -2.6322,-7.99964 -0.7335,-9.17314 0.6936,-0.42867 4.2625,-4.53998 7.9309,-9.13627 14.6271,-18.32684 29.3252,-29.7085 45.4578,-35.20081 l 8.9803004,-3.05734 -0.8775,-5.67436 c -0.4827,-3.1209 -0.8192,-15.79937 -0.7479,-28.17437 0.1157,-20.08252 0.4834,-23.83346 3.4221,-34.91077 8.0188,-30.22613 25.3397996,-53.26794 42.3857996,-56.38523 2.5781,-0.47147 4.6875,-1.55591 4.6875,-2.40985 0,-7.48992 -2.9299,-57.02326 -4.4018,-74.41915 -1.018,-12.03125 -2.6769,-35.27618 -3.6863,-51.6554 l -1.8354,-29.78041 -4.3323,-5.84459 c -5.2604,-7.09671 -20.4742,-22.00238 -43.8692,-42.98073 -54.0823,-48.49564 -71.0215,-74.96773 -71.1884,-111.25107 -0.083,-18.09908 -0.7265,-17.56877 22.0942,-18.2173 14.6486,-0.41628 20.113,-0.0393 30.5137,2.10574 15.6277,3.2229 28.1473004,8.22215 39.5065004,15.77554 4.7779996,3.17712 8.8414996,5.59584 9.0300996,5.37491 1.3336,-1.5623 -14.3660996,-59.791 -23.3003996,-86.41901 -5.6749004,-16.91354 -6.2994004,-19.94144 -7.2107004,-34.96008 -2.4691,-40.6916 5.0184004,-77.94332 22.9181,-114.0226 10.5935,-21.35246 20.5208,-36.13513 35.3884,-52.69671 34.9621,-38.94549 73.631999,-71.73181 103.859599,-88.05752 7.1107,-3.84042 9.2924,-6.12209 22.8516,-23.899422 8.2447,-10.809514 16.8892,-21.102018 19.2101,-22.872233 8.6981,-6.634367 18.9433,-5.281257 33.6696,4.446839 4.8991,3.236366 11.1311,8.206246 13.8487,11.044178 4.8121,5.025031 5.1566,5.159876 13.1819,5.159876 7.6523,0 9.1289,-0.491831 20.6838,-6.889586 15.3413,-8.494264 35.5656,-16.527274 48.173,-19.134215 13.2379,-2.737305 17.9722,-0.859313 29.8227,11.830012 11.5255,12.341414 19.182,27.084535 18.5983,35.812431 l -0.4008,5.99364 8.7064,4.85972 8.7064,4.85972 6.8754,-7.59754 c 8.127,-8.98065 14.3681,-12.17353 23.8368,-12.19452 13.1824,-0.0292 24.9456,7.83832 35.2198,23.55598 12.5718,19.23259 13.1784,38.52108 1.4296,45.45308 -2.2822,1.34652 -4.1494,2.72481 -4.1494,3.06287 0,0.33808 2.5995,3.65752 5.7768,7.37654 5.5908,6.54406 5.9833,6.76246 12.1875,6.78034 22.6577,0.0652 43.2679,12.535 52.1551,31.55521 3.9155,8.37989 4.2302,9.97855 4.2424,21.55131 0.011,10.77824 -0.3972,13.27479 -2.9657,18.125 -4.9374,9.32342 -9.7284,14.47519 -16.9903,18.26965 -3.7949,1.98294 -6.9012,4.23183 -6.9029,4.99753 0,0.88024 4.289,1.61667 11.6685,2.00267 18.7948,0.98309 31.1633,8.12543 37.8939,21.88239 4.8471,9.90705 4.9445,24.1088 0.2349,34.24778 -4.315,9.28938 -10.7877,16.2532 -19.1856,20.64121 -6.7218,3.51222 -7.5164,4.78209 -6.157,9.83964 0.6132,2.28116 1.7605,2.5137 12.7955,2.59333 13.785,0.0995 21.4873,2.67792 28.8334,9.65233 5.5929,5.3099 7.666,10.53141 7.6512,19.27082 -0.028,16.74207 -14.7343,33.44023 -31.9047,36.2266 l -4.6216,0.74999 0.7401,5.39933 c 1.8867,13.76516 3.5073,47.23972 2.7917,57.66423 -0.4365,6.35938 -0.5281,11.5625 -0.2035,11.5625 0.3246,0 2.4164,-2.65435 4.6485,-5.89855 6.0421,-8.78201 21.9136,-24.94002 30.4368,-30.98625 9.7612,-6.92456 22.1932,-13.1152 26.3378,-13.1152 4.1054,0 9.0213,5.11278 15.515,16.13649 27.3971,46.50891 6.8281,112.90633 -57.3456,185.11351 -5.8046,6.53125 -11.9383,13.38825 -13.6303,15.23779 l -3.0765,3.3628 5.786,6.6143 c 5.7815,6.60914 5.7943,6.61549 16.3606,8.14088 21.3045,3.07558 32.3911,13.12846 32.2534,29.24596 -0.099,11.52406 -7.7171,22.38934 -20.0129,28.54115 l -5.3125,2.65794 0,13.85832 c 0,12.71361 0.1806,13.78276 2.1875,12.94343 13.5923,-5.6849 26.6638,-7.04222 35.1437,-3.64927 4.6669,1.86737 21.7419,19.6283 29.9193,31.12133 2.2705,3.19105 4.7644,4.82797 9.4465,6.20051 l 6.3616,1.86485 17.1361,-8.695 c 9.4249,-4.78224 17.9597,-8.69499 18.9662,-8.69499 3.2034,0 9.524,8.5891 16.2026,22.01805 5.8883,11.83963 6.88,13.13945 10.8704,14.24809 2.4151,0.67095 4.9949,1.22306 5.7329,1.22689 0.738,0.004 3.9375,-3.7918 7.1099,-8.43476 3.1723,-4.64295 7.4288,-10.03298 9.4588,-11.97783 3.5154,-3.36797 3.8608,-3.44719 7.2652,-1.66607 3.6224,1.89522 25.2963,23.53975 35.5285,35.48047 5.3694,6.26598 6.1407,6.68796 19.8092,10.83768 l 14.2223,4.31782 6.3821,-5.99354 c 20.5794,-19.32642 39.6919,-14.10518 53.3838,14.58363 2.0679,4.33272 3.4684,8.34901 3.1124,8.92507 -0.356,0.57608 4.705,2.62799 11.2467,4.55983 12.621,3.7271 15.5143,5.97655 15.5143,12.06209 0,2.12026 -1.1687,4.3004 -3.1339,5.84622 -4.9903,3.92541 -157.5984,41.43904 -204.2108,50.19844 -81.7508,15.36262 -138.1953,17.01556 -172.2555,5.04437 -3.9535,-1.38955 -7.3483,-2.52645 -7.544,-2.52645 -0.1957,0 -0.3558,1.34394 -0.3558,2.98653 0,1.64257 -1.0752,4.31445 -2.3892,5.9375 l -2.3891,2.95097 -83.2714,0.33855 -83.2714,0.33855 -2.777,-2.88427 -2.7769,-2.88428 -121.875,2.73594 c -155.012199,3.47984 -158.554199,3.59696 -178.749999,5.91138 -16.1632,1.85227 -44.6236996,3.62042 -83.943,5.21507 -18.0449,0.73184 -18.3478,0.70045 -20.3125,-2.10465 z"
       id="path3426" />
    <path
       style="fill:#000000"
       d="m 1.6964714,968.94133 c 12.3749996,-0.70114 24.5066996,-1.57626 26.9592996,-1.94472 l 4.4594,-0.66993 1.5395,-21.30611 c 0.8467,-11.71836 2.6224,-29.82689 3.9459,-40.24116 3.4624,-27.2433 5.9062,-52.70912 6.9017,-71.92048 l 0.8672,-16.73542 -3.5865,0.88056 c -4.8272,1.18516 -13.4679,9.75627 -18.5935,18.44381 -13.1364,22.26499 -18.2253996,57.96795 -12.556,88.08951 2.5617,13.6102 1.7873,16.16602 -5.2646996,17.37613 -15.7515,2.70294 -28.5476004,9.13731 -39.8093004,20.01765 -4.3934,4.24461 -7.988,8.38149 -7.988,9.19304 0,1.07073 2.8292,1.28575 10.3125,0.78373 5.6718,-0.3805 20.4375,-1.26547 32.8125004,-1.96661 z"
       id="path3424" />
    <path
       style="fill:#000000"
       d="m 124.89787,958.20688 30.7014,-0.75442 -0.4797,-3.92905 c -1.449,-11.86832 -6.194,-36.07672 -12.163,-62.05407 -9.1689,-39.90341 -9.7376,-43.41458 -9.8182,-60.625 -0.1494,-31.86948 11.629,-59.88588 34.6839,-82.5 20.8822,-20.48292 46.0901,-30.63661 76.009,-30.61623 47.0082,0.032 85.5872,30.0772 102.1649,79.5657 7.6267,22.76745 11.6559,50.98532 13.3119,93.22716 l 0.8694,22.17664 5.7592,-4.13689 5.7593,-4.13688 4.4534,-23.77762 c 2.4494,-13.07769 5.2086,-25.69558 6.1316,-28.03975 12.7675,-32.42604 17.0385,-39.56758 30.9647,-51.77565 20.7843,-18.22008 45.0584,-24.7978 50.1636,-13.59318 2.1273,4.66893 1.7723,6.23459 -2.5234,11.12707 -4.8108,5.47922 -7.2221,6.75301 -22.3144,11.7879 -13.7175,4.57621 -17.4832,7.61502 -25.6416,20.69173 -8.6856,13.92174 -13.3858,34.47524 -15.7218,68.75 -0.7498,11 -1.6016,21.2554 -1.893,22.78977 -0.6065,3.19318 -6.3337,6.58523 -11.1186,6.58523 -4.3493,0 -10.2199,3.15738 -11.9777,6.44189 -0.7848,1.4663 -3.0158,7.36673 -4.9578,13.11206 l -3.531,10.44605 65.5897,0 c 63.1895,0 65.5449,-0.0838 64.3646,-2.28923 -2.0544,-3.83862 -8.8459,-29.34552 -8.8547,-33.2552 -0.01,-4.40792 4.3495,-9.45557 8.1662,-9.45557 4.0728,0 9.0157,4.4838 10.0072,9.07774 7.8015,36.14651 68.8782,43.72859 183.2996,22.75489 12.9629,-2.37613 33.8232,-6.58568 46.3564,-9.35459 31.465,-6.95147 125.9125,-30.34995 125.9125,-31.19365 0,-0.37907 -61.7344,-19.09414 -137.1875,-41.58902 l -137.1875,-40.8998 -21.875,-1.97952 c -22.5525,-2.04081 -26.5818,-3.2038 -28.1431,-8.12296 -1.5322,-4.8276 0.5586,-8.35216 8.5909,-14.48209 l 7.9748,-6.086 0.6706,-8.125 c 0.9841,-11.92182 -1.1689,-37.9347 -4.0882,-49.39603 -3.809,-14.95434 -7.9301,-22.20072 -19.6716,-34.59024 -9.1039,-9.6063 -10.4587,-11.59435 -9.7705,-14.33654 0.4395,-1.75101 7.5817,-10.51641 15.8716,-19.47866 40.7571,-44.06285 63.8852,-81.6411 71.7675,-116.60695 2.6477,-11.74494 2.9869,-32.38458 0.6671,-40.59158 -2.2719,-8.03768 -8.7434,-21.25 -10.4083,-21.25 -3.2909,0 -17.7504,10.9127 -26.2222,19.79018 -12.5918,13.19475 -18.6842,22.84015 -37.044,58.6484 -8.724,17.01504 -17.6115,33.46767 -19.7498,36.56142 -7.9271,11.46878 -22.3785,22.38903 -29.7393,22.47255 -3.7588,0.0426 -8.2055,-4.89643 -8.2055,-9.11403 0,-2.90669 2.0258,-5.82613 9.3954,-13.53983 23.4779,-24.57404 33.3531,-52.39702 35.2067,-99.19369 2.3014,-58.10041 -14.5234,-138.49878 -53.096,-253.72207 -15.1338,-45.20761 -14.9661,-44.89788 -36.443,-67.28873 -21.9425,-22.87618 -43.8832,-39.00816 -71.9381,-52.89279 -68.42,-33.861636 -145.7299,-32.790596 -205.7077,2.84985 -34.6948,20.61657 -88.586499,70.94624 -110.039099,102.76586 -26.209,38.87461 -39.4955996,85.7416 -36.7233996,129.53788 0.7604,12.01237 1.8078,16.67239 8.2882996,36.875 9.5464,29.76038 19.757,69.479 25.386,98.75 2.4458,12.71875 5.5719,27.64343 6.9468,33.16595 1.3749,5.52253 2.7447,15.08503 3.044,21.25 0.2994,6.16498 1.3983,21.6153 2.442,34.33405 1.0438,12.71875 2.4988,36.0625 3.2334,51.875 1.5184,32.68574 3.0571,56.59698 5.6709,88.125 4.7388,57.16162 4.7101,109.02033 -0.082,149.375 -4.6417,39.08295 -6.7225,58.30887 -7.5512,69.77007 l -0.8872,12.27007 21.1149,-0.71159 c 11.6131,-0.39137 34.930399,-1.05107 51.816199,-1.46601 z"
       id="path3422" />
    <path
       style="fill:#000000"
       d="m 134.82147,609.80824 c -13.4063,-0.56986 -24.9149,-1.55975 -25.5748,-2.19976 -0.7615,-0.73856 -0.3048,-2.64327 1.25,-5.2139 2.2191,-3.66887 2.4374,-6.28651 2.3187,-27.80024 -0.1883,-34.14541 -3.9182,-58.2196 -14.922499,-96.31647 -4.7334,-16.38701 -18.6236,-56.35664 -20.1643,-58.0234 -0.2999,-0.32444 -3.2689,0.94119 -6.5979,2.8125 -7.0638,3.97072 -8.8217,4.21409 -8.7757,1.21487 0.02,-1.27667 5.3544,-6.28942 12.8125,-12.03901 69.605399,-53.65994 150.106599,-84.0581 250.278999,-94.50815 19.1823,-2.00111 62.8072,-3.61577 76.8236,-2.84342 13.1623,0.72528 14.1326,1.28786 11.3118,6.55866 -0.9804,1.83181 -0.083,4.1923 4.2909,11.28657 11.4949,18.64409 23.0043,49.41613 29.3078,78.35813 6.5565,30.10361 7.0045,34.33275 6.9922,65.99972 -0.01,26.49724 -0.3414,31.49903 -2.8355,42.83864 -7.2407,32.92036 -14.6192,45.31528 -23.9901,40.30015 -1.7909,-0.95845 -4.7917,-0.0134 -13.3553,4.20614 -45.4746,22.40642 -91.6838,36.80017 -136.736,42.59207 -34.9007,4.48682 -81.0437,5.38643 -142.4344,2.7769 z"
       id="path3420" />
    <path
       style="fill:#000000"
       d="m 156.05657,601.72353 c -0.071,-4.19755 -21.903,-34.51151 -23.9457,-33.24906 -0.5717,0.35332 -1.0518,2.7186 -1.0669,5.25615 -0.038,6.35169 -3.5842,13.59206 -10.4366,21.30755 -3.1823,3.58304 -5.7867,6.91772 -5.7876,7.4104 -9e-4,0.49267 9.2803,0.72891 20.625,0.52496 11.3447,-0.20394 20.6199,-0.76644 20.6118,-1.25 z"
       id="path3418" />
    <path
       style="fill:#000000"
       d="m 206.45327,600.67087 c 0.4391,-0.43916 -0.5921,-2.45108 -2.2917,-4.47091 -1.8741,-2.22722 -3.0901,-5.24219 -3.0901,-7.66135 0,-5.56965 -5.6124,-13.58613 -9.1582,-13.08118 -3.2607,0.46436 -7.9796,9.29189 -10.2975,19.26311 l -1.5688,6.7488 12.8039,0 c 7.0421,0 13.1632,-0.35931 13.6024,-0.79847 z"
       id="path3416" />
    <path
       style="fill:#000000"
       d="m 252.06007,596.40862 6.4371,-1.38051 -9.4682,-11.77173 -9.4681,-11.77172 -3.5657,2.53898 c -7.9754,5.67899 -10.5857,11.17419 -9.3194,19.61889 l 0.8512,5.67628 9.048,-0.76484 c 4.9764,-0.42065 11.9447,-1.38606 15.4851,-2.14535 z"
       id="path3414" />
    <path
       style="fill:#000000"
       d="m 263.57147,588.90727 c 0,-6.40343 2.5802,-11.41849 8.0028,-15.55446 3.5566,-2.71275 4.6117,-4.72479 6.4254,-12.25212 1.1935,-4.9535 2.291,-9.15878 2.4388,-9.34508 0.1478,-0.1863 6.2426,1.66021 13.5438,4.10338 9.789,3.27558 16.9765,4.76652 27.3696,5.6774 27.4174,2.40293 37.3613,3.70864 41.5396,5.45444 2.3243,0.97116 4.5532,1.43863 4.953,1.0388 0.3998,-0.39982 0.7303,-5.55507 0.7343,-11.45612 0.01,-13.20438 2.9081,-33.15678 6.3052,-43.39474 5.5148,-16.62046 15.2199,-21.75059 24.3982,-12.89693 5.7086,5.50672 12.1582,18.87844 15.8947,32.95368 l 2.9279,11.02971 6.4657,-7.33544 c 7.4578,-8.46112 7.0635,-5.44266 5.2042,-39.83545 -1.3147,-24.31861 -3.6943,-50.15648 -6.4318,-69.83827 l -1.5423,-11.08826 -10.6771,0.83891 c -18.6828,1.46792 -19.1488,1.62084 -21.7392,7.13326 -3.6944,7.86174 -11.3441,16.6727 -18.0664,20.80895 l -6.2204,3.82744 -4.7025,-11.46601 c -2.5865,-6.30632 -4.8334,-11.63525 -4.9933,-11.84209 -0.1599,-0.20684 -4.8716,0.79352 -10.4704,2.22304 -57.5501,14.69382 -89.699,39.68232 -100.0668,77.77906 -3.311,12.1666 -5.0218,28.25007 -5.0258,47.24897 l 0,15.625 6.9576,8.75 c 8.109,10.19807 14.3501,16.875 15.7737,16.875 0.5531,0 1.0052,-2.27793 1.0052,-5.06207 z"
       id="path3412" />
    <path
       style="fill:#000000"
       d="m 287.62567,590.21934 c 13.0931,0 13.4458,-0.0735 13.4458,-2.80032 0,-1.83373 -2.8651,-5.5012 -8.3005,-10.625 -4.5653,-4.30358 -8.8233,-7.82468 -9.4623,-7.82468 -1.9814,0 -11.9112,7.31623 -14.6425,10.78842 -1.5911,2.02282 -2.5947,5.13371 -2.5947,8.0429 l 0,4.74417 4.0542,-1.16275 c 2.2298,-0.6395 10.1048,-1.16274 17.5,-1.16274 z"
       id="path3410" />
    <path
       style="fill:#000000"
       d="m 405.13397,558.27096 c 10.0395,-1.04072 9.9197,-0.63782 5.4403,-18.29605 -6.0609,-23.89292 -13.7839,-37.7986 -20.5574,-37.01479 -7.0633,0.81734 -13.6215,21.99259 -14.8639,47.99215 l -0.6622,13.85794 11.1028,-2.83232 c 6.1066,-1.55776 14.8997,-3.22588 19.5404,-3.70693 z"
       id="path3408" />
    <path
       style="fill:#000000"
       d="m 122.32147,442.98197 c 0,-20.22508 11.7933,-45.31003 23.6014,-50.20108 5.1713,-2.14202 11.6174,0.85474 15.6793,7.28918 3.838,6.07979 6.4984,7.64927 12.9659,7.64927 l 4.9111,0 0.6476,-8.06767 c 1.102,-13.7293 7.1492,-20.68324 18.8285,-21.65178 l 6.7375,-0.55872 -0.1232,5.54259 c -0.088,3.94308 0.7405,6.80308 2.8694,9.91052 2.85,4.15975 14.8699,13.57506 17.3305,13.57506 0.6394,0 1.8112,-4.58687 2.604,-10.19306 1.6546,-11.70014 5.7875,-21.68424 10.9623,-26.48261 6.9215,-6.41803 17.6461,-3.5158 29.9266,8.09854 6.1995,5.86328 6.5345,6.01546 7.2621,3.29946 0.4196,-1.56603 0.7705,-5.20134 0.7799,-8.07845 0.01,-2.87713 0.5931,-6.74624 1.2972,-8.59805 1.1805,-3.10505 1.6909,-3.31183 6.5617,-2.6585 5.6101,0.75246 7.7355,2.67336 17.5506,15.86182 2.6221,3.52325 5.3889,6.19874 6.1486,5.94553 2.0288,-0.67628 4.3593,-8.28756 5.3392,-17.4374 0.8596,-8.02711 0.8594,-8.02779 -3.3292,-11.22256 -8.0554,-6.14417 -22.6077,-12.66458 -27.8289,-12.46925 -6.3482,0.23748 -43.7455,9.67043 -67.1176,16.92946 -34.3215,10.65977 -69.7868,24.90442 -102.3545,41.11074 l -18.124999,9.01933 0.3777,6.875 c 1.1475,20.88872 10.439299,34.99093 23.059799,34.99807 3.4126,0.002 3.4375,-0.0594 3.4375,-8.48544 z"
       id="path3406" />
    <path
       style="fill:#000000"
       d="m 380.53247,418.36984 c 5.0253,-10.22255 9.7104,-27.81375 11.6587,-43.7755 1.499,-12.2808 1.8069,-34.75248 0.5779,-42.1875 -0.9312,-5.63421 -0.4808,-5.58862 -27.6707,-2.80056 -29.3865,3.0133 -44.0972,5.4754 -50.5322,8.45745 l -6.0003,2.78061 8.4403,6.32558 c 16.8261,12.61036 30.3175,33.04872 45.3321,68.67442 7.8439,18.61173 7.1171,17.65469 10.7886,14.2055 1.7004,-1.59747 5.033,-6.85347 7.4056,-11.68 z"
       id="path3404" />
    <path
       style="fill:#000000"
       d="m 71.921371,371.51032 c -7.2723,-2.32374 -15.2388,-6.85011 -20.5374,-11.66895 -3.4015,-3.0934 -3.5708,-7.28779 -0.8324,-20.61223 2.6948,-13.11215 8.1554,-25.73477 14.7763,-34.15673 15.6671,-19.92902 37.406999,-15.25685 58.846999,12.64693 7.781,10.12674 9.3966,13.94039 9.3966,22.18073 0,13.4515 -10.5757,25.9461 -26.7828,31.64242 -9.063399,3.18554 -24.842699,3.17098 -34.867299,-0.0321 z"
       id="path3402" />
    <path
       style="fill:#000000"
       d="m 98.571471,335.11257 c 10.435099,-2.40363 13.809899,-8.80495 8.892899,-16.86828 -3.6076,-5.91593 -14.087599,-9.94328 -18.393299,-7.06831 -2.9625,1.97814 -4.2496,6.77453 -4.2496,15.83619 l 0,9.45717 4.0625,-0.0306 c 2.2343,-0.0168 6.5937,-0.6136 9.6875,-1.32621 z"
       id="path3400" />
    <path
       style="fill:#000000"
       d="m 296.07147,297.01109 c -11.7301,-2.54017 -22.8719,-8.48735 -31.1096,-16.60533 -27.3508,-26.95319 -26.2669,-71.05339 2.4334,-99.00837 22.1378,-21.56282 58.0035,-20.4007 81.0297,2.62552 7.5996,7.5996 10.861,13.8973 14.094,27.21557 2.278,9.38429 1.8916,32.12669 -0.6931,40.79051 -6.9331,23.23969 -22.5876,39.91023 -42.4422,45.19669 -7.9015,2.10388 -12.8149,2.05864 -23.3122,-0.21459 z"
       id="path3398" />
    <path
       style="fill:#000000"
       d="m 315.30747,217.23297 c 11.79,-4.92616 17.4739,-21.40616 11.7305,-34.01148 -1.7832,-3.91382 -8.939,-6.09005 -16.364,-4.97661 -14.4593,2.1683 -24.8,18.21513 -18.9847,29.46065 1.4776,2.85726 2.8489,3.6932 6.5625,4.00043 4.3103,0.35658 4.6617,0.66985 4.2927,3.82588 -0.3728,3.18844 -0.076,3.4375 4.1026,3.4375 2.4776,0 6.3747,-0.78136 8.6604,-1.73637 z"
       id="path3396" />
    <path
       style="fill:#000000"
       d="m 356.53297,163.46284 c -3.6035,-4.4125 -10.1756,-10.35276 -15,-13.55785 -11.9693,-7.95182 -22.0437,-11.14384 -37.5281,-11.89056 -15.3076,-0.73819 -26.9525,2.19403 -35.931,9.0475 -3.3644,2.56808 -5.9811,3.79865 -6.4532,3.03478 -1.9125,-3.09438 10.8972,-11.32402 22.3885,-14.38371 14.8668,-3.95842 37.0745,-0.87088 52.4213,7.28815 11.9018,6.32754 30.3507,24.52969 27.6072,27.23794 -0.616,0.60799 -3.8847,-2.34347 -7.5047,-6.77625 z"
       id="path3394" />
    <path
       style="fill:#000000"
       d="m 249.19647,950.19711 c 38.5,-2.08098 72.3252,-4.07694 75.1672,-4.43548 4.6265,-0.58369 5.2495,-1.07121 5.9542,-4.65959 0.5554,-2.82813 3.547,-6.61926 10.164,-12.88078 l 9.3769,-8.87309 -0.8316,-12.68941 c -0.4573,-6.97918 -0.9089,-12.68942 -1.0034,-12.68942 -0.094,0 -21.223,4.21875 -46.9523,9.375 -25.7293,5.15625 -47.1581,9.375 -47.6195,9.375 -0.4614,0 -1.1156,-1.05783 -1.4537,-2.35073 -0.5638,-2.15589 3.4132,-3.15515 47.9792,-12.05543 l 48.594,-9.7047 0,-4.5697 c 0,-19.3339 -5.2348,-58.66029 -10.1396,-76.17395 -9.2141,-32.90065 -27.6586,-57.18329 -52.8189,-69.53722 -16.2637,-7.9856 -24.6952,-9.94239 -42.6665,-9.90203 -11.674,0.0263 -17.1791,0.65221 -24.8271,2.82319 -43.1754,12.25574 -72.04,49.31611 -74.1629,95.22057 -0.7783,16.83135 0.4971,25.37788 9.6403,64.59767 5.243,22.48993 8.2951,37.8698 11.9409,60.17081 l 0.6774,4.14346 6.4907,-0.7003 c 3.5699,-0.38516 37.9907,-2.40291 76.4907,-4.48387 z"
       id="path3392" />
    <path
       style="fill:#000000"
       d="m 191.95927,945.21934 c -0.3596,-1.375 -0.5446,-2.5 -0.4111,-2.5 0.5289,0 94.0874,-18.74838 96.8039,-19.39873 2.4557,-0.58792 2.8428,-0.26127 2.5,2.10941 -0.3835,2.65182 -3.0343,3.33386 -48.5306,12.48652 -26.4688,5.32483 -48.4813,9.70879 -48.9168,9.74215 -0.4354,0.0334 -1.0859,-1.06435 -1.4454,-2.43935 z"
       id="path3390" />
    <path
       style="fill:#000000"
       d="m 243.57147,874.22114 c 0,-3.11703 -2.3083,-2.74096 51.25,-8.34963 23.0312,-2.41185 43.4218,-4.6562 45.3125,-4.98743 2.7836,-0.48769 3.4375,-0.13716 3.4375,1.8427 0,1.52098 -1.0629,2.67601 -2.8125,3.05641 -1.5469,0.33632 -21.6563,2.60644 -44.6875,5.04472 -23.0313,2.43827 -44.2657,4.76895 -47.1875,5.17926 -4.7472,0.66664 -5.3125,0.47656 -5.3125,-1.78603 z"
       id="path3388" />
    <path
       style="fill:#000000"
       d="m 156.07147,835.26809 0,-3.20995 83.4375,-9.17228 c 45.8906,-5.04477 84.7031,-9.45698 86.25,-9.80492 2.3595,-0.53073 2.8125,-0.1075 2.8125,2.62789 0,1.79329 -0.1407,3.30769 -0.3125,3.36534 -0.1719,0.0576 -38.9844,4.44711 -86.25,9.75435 l -85.9375,9.64951 0,-3.20994 z"
       id="path3386" />
    <path
       style="fill:#000000"
       d="m 198.06507,779.45268 c -0.4414,-1.15014 -0.5226,-2.37104 -0.1805,-2.71311 1.029,-1.02905 97.4864,-20.07764 98.4994,-19.45184 1.7414,1.07581 0.9527,4.00873 -1.25,4.64808 -1.2032,0.34922 -22.4375,4.63931 -47.1875,9.53353 -24.75,4.89423 -45.9178,9.16318 -47.0395,9.48655 -1.1602,0.33448 -2.3854,-0.31357 -2.8419,-1.50321 z"
       id="path3384" />
    <path
       style="fill:#000000"
       d="m 871.07147,884.55279 c 0,-0.36661 -1.4255,-3.47957 -3.1677,-6.9177 -6.3176,-12.46711 -17.4672,-20.018 -26.473,-17.92845 -8.1712,1.89589 -22.9823,13.42835 -18.9953,14.79045 15.7875,5.39359 48.636,12.18517 48.636,10.0557 z"
       id="path3382" />
    <path
       style="fill:#000000"
       d="m 771.32987,853.03184 c -10.105,-11.64128 -23.1719,-24.83348 -26.1444,-26.39495 -2.5183,-1.3229 -3.1861,-0.87223 -7.5992,5.12855 -7.2948,9.91932 -9.4295,13.45589 -8.6143,14.27115 1.044,1.04397 43.4833,13.9529 46.2856,14.07887 1.7531,0.0788 0.8046,-1.63182 -3.9277,-7.08362 z"
       id="path3380" />
    <path
       style="fill:#000000"
       d="m 704.82147,838.18287 c 0,-1.12291 -11.0541,-21.8671 -13.1828,-24.73901 -1.7224,-2.32372 -2.1898,-2.21254 -14.6108,3.47582 -14.9591,6.85069 -16.7834,7.88938 -15.7217,8.95111 0.8683,0.86822 39.452,12.8144 41.9528,12.98929 0.8593,0.0601 1.5625,-0.24465 1.5625,-0.67721 z"
       id="path3378" />
    <path
       style="fill:#000000"
       d="m 629.61307,815.32266 c -0.2291,-0.63069 -5.3715,-6.52414 -11.4275,-13.09657 -13.2484,-14.37835 -15.9886,-15.55668 -29.5842,-12.72191 -13.3032,2.7738 -22.49,8.75506 -18.9242,12.32094 0.6533,0.65325 5.5936,1.66959 10.9785,2.25854 5.3849,0.58895 17.947,3.56748 27.9158,6.61896 19.2749,5.90014 21.7003,6.43267 21.0416,4.62004 z"
       id="path3376" />
    <path
       style="fill:#000000"
       d="m 573.41497,752.17527 c 5.2478,-2.71374 12.3267,-11.1902 13.9947,-16.75764 3.3666,-11.23661 -3.3645,-21.8547 -16.2871,-25.69229 -6.9832,-2.0738 -11.6045,-2.53595 -12.8549,-1.28552 -0.3963,0.39625 0.6442,3.70134 2.3121,7.34461 3.4203,7.47093 7.9237,26.41125 7.9646,33.49741 0.031,5.30315 0.1144,5.35293 4.8706,2.89343 z"
       id="path3374" />
    <path
       style="fill:#000000"
       d="m 33.081271,590.53184 c 2.0512,-43.11062 1.1694,-51.60955 -7.0432,-67.87861 -13.6594,-27.05915 -49.2527,-44.49217 -87.1541,-42.68674 l -7.8125,0.37214 0.018,5.87786 c 0.025,8.0562 2.9752,19.88974 7.3796,29.6034 5.8828,12.97433 15.8736,26.28049 31.9769,42.58828 14.58,14.76515 59.1802,55.56117 60.7422,55.56117 0.4276,0 1.2792,-10.54687 1.8926,-23.4375 z"
       id="path3372" />
    <path
       style="fill:#000000"
       d="m 546.15027,431.41061 c 5.505,-2.78554 12.9923,-10.36095 15.5336,-15.71638 5.7214,-12.05697 2.2424,-23.75644 -8.6724,-29.16425 -4.731,-2.34401 -8.7712,-3.18801 -17.1875,-3.5904 -13.0047,-0.62176 -12.2699,-2.38166 -7.9981,19.15476 1.6363,8.25 3.6548,19.11047 4.4854,24.13435 l 1.5103,9.13435 3.9374,-0.8494 c 2.1656,-0.46716 5.9417,-1.86353 8.3913,-3.10303 z"
       id="path3370" />
    <path
       style="fill:#000000"
       d="m 526.35167,353.33634 c 12.0379,-8.17992 17.571,-24.7214 12.7962,-38.25462 -4.0262,-11.4114 -13.425,-17.46159 -28.5267,-18.36304 -9.1823,-0.54812 -9.7782,-0.43232 -9.1059,1.76959 1.3547,4.4371 10.6097,37.3478 13.4051,47.66857 3.1448,11.61052 4.0624,12.1868 11.4313,7.1795 z"
       id="path3368" />
    <path
       style="fill:#000000"
       d="m 505.95607,266.29054 c 16.452,-16.45196 9.1026,-48.86042 -13.7138,-60.4735 -6.4145,-3.26487 -20.6064,-6.5788 -22.0389,-5.14627 -0.5156,0.51552 0.026,3.57797 1.2022,6.80545 1.1768,3.22746 6.6825,19.46657 12.2351,36.0869 l 10.0954,30.21876 3.6297,-1.26529 c 1.9963,-0.69591 5.8619,-3.49763 8.5903,-6.22605 z"
       id="path3366" />
    <path
       style="fill:#000000"
       d="m 450.95747,169.65329 c 10.3177,-5.33553 8.2863,-26.0056 -4.2264,-43.00284 -16.4954,-22.40744 -37.8189,-24.43444 -51.9423,-4.9376 l -3.6118,4.98592 9.4229,6.3659 c 9.8437,6.65018 32.9931,26.05247 40.4043,33.86416 4.8808,5.14464 5.1374,5.21486 9.9533,2.72446 z"
       id="path3364" />
    <path
       style="fill:#000000"
       d="m 359.82147,105.08964 c 0,-3.33828 -9.5374,-19.064306 -15.6756,-25.847236 -9.0344,-9.983298 -11.9335,-11.085148 -22.7369,-8.64126 -9.3014,2.104125 -39.0875,14.228335 -39.0875,15.910279 0,0.580109 2.6718,1.427442 5.9375,1.882964 12.7873,1.783706 30.3622,6.034047 44.6875,10.807297 12.5376,4.177606 20.2651,6.302036 25.9375,7.130706 0.5156,0.0753 0.9375,-0.48391 0.9375,-1.24275 z"
       id="path3362" />
    <path
       style="fill:#000000"
       d="m 215.75897,89.521974 c 7.0468,-1.230807 12.7905,-2.561785 12.7637,-2.957729 -0.089,-1.309323 -11.2496,-8.988191 -16.584,-11.410004 -6.4077,-2.909086 -9.4695,-3.024297 -13.0844,-0.492343 -2.3103,1.618251 -15.3737,17.864621 -18.1407,22.560946 -0.4468,0.75817 4.3729,-0.16085 10.7103,-2.04227 6.3374,-1.881425 17.2882,-4.427793 24.3351,-5.6586 z"
       id="path3358" />
  </g>
</svg>
