<?xml version="1.0" encoding="UTF-8" standalone="no"?>
<svg
   xmlns:dc="http://purl.org/dc/elements/1.1/"
   xmlns:cc="http://creativecommons.org/ns#"
   xmlns:rdf="http://www.w3.org/1999/02/22-rdf-syntax-ns#"
   xmlns:svg="http://www.w3.org/2000/svg"
   xmlns="http://www.w3.org/2000/svg"
   xmlns:sodipodi="http://sodipodi.sourceforge.net/DTD/sodipodi-0.dtd"
   xmlns:inkscape="http://www.inkscape.org/namespaces/inkscape"
   version="1.1"
   width="600"
   height="525"
   id="svg4228"
   inkscape:version="0.91 r13725"
   sodipodi:docname="silhouette-971335_1280.svg">
  <metadata
     id="metadata4248">
    <rdf:RDF>
      <cc:Work
         rdf:about="">
        <dc:format>image/svg+xml</dc:format>
        <dc:type
           rdf:resource="http://purl.org/dc/dcmitype/StillImage" />
      </cc:Work>
    </rdf:RDF>
  </metadata>
  <defs
     id="defs4246" />
  <sodipodi:namedview
     pagecolor="#ffffff"
     bordercolor="#666666"
     borderopacity="1"
     objecttolerance="10"
     gridtolerance="10"
     guidetolerance="10"
     inkscape:pageopacity="0"
     inkscape:pageshadow="2"
     inkscape:window-width="1920"
     inkscape:window-height="1058"
     id="namedview4244"
     showgrid="false"
     inkscape:zoom="0.44952381"
     inkscape:cx="-4.1796738"
     inkscape:cy="293.78844"
     inkscape:window-x="1912"
     inkscape:window-y="-8"
     inkscape:window-maximized="1"
     inkscape:current-layer="svg4228" />
  <path
     style="fill:#000000"
     d="m -231.80244,833.79474 c -23.79356,-3.30887 -44.43685,-9.494 -69.79726,-20.91262 -13.23189,-5.95775 -15.88795,-7.64763 -18.70103,-11.8985 l -3.27876,-4.95451 -13.79898,0.55963 c -11.48762,0.466 -15.15992,1.13887 -21.92397,4.01725 -14.49866,6.16987 -17.99945,7.231 -26.11134,7.91462 l -7.98634,0.673 0.87968,-4.8725 c 1.38136,-7.65162 5.06206,-14.166 13.3471,-23.62262 8.94239,-10.207 11.3827,-15.21113 11.51045,-23.60371 0.10013,-6.57614 0.38135,-6.20565 -12.7047,-16.73645 -3.26608,-2.62833 -5.55469,-5.75562 -6.40345,-8.75 -1.2048,-4.25052 -6.28058,-33.15562 -6.28115,-35.76944 -3.3e-4,-1.45115 -12.34704,0.0273 -21.87525,2.61936 -9.63393,2.62085 -32.54465,2.51003 -51.25,-0.24792 -49.22535,-7.25785 -85.99765,-24.38637 -116.00079,-54.03307 -17.66749,-17.45758 -27.33349,-32.80638 -32.39097,-51.43421 -3.12138,-11.49666 -3.78269,-42.29182 -1.17134,-54.54456 9.8293,-46.12006 44.1541,-87.70465 92.17352,-111.66848 44.4831,-22.19903 96.96387,-27.07102 127.33619,-11.82111 9.8101,4.92564 27.66608,23.81663 34.06149,36.03581 7.13395,13.6303 13.53069,33.48949 15.88902,49.32878 2.18374,14.66659 4.46504,43.60457 4.47279,56.73661 l 0.005,8.61161 6.1828,-0.73226 c 11.01054,-1.30402 20.59774,-8.374 29.07236,-21.43905 13.86495,-21.37517 12.70292,-48.1625 -3.18863,-73.50437 -3.12039,-4.97614 -12.75296,-18.04754 -21.40564,-29.04754 -58.93741,-74.92619 -69.88484,-95.06944 -73.06234,-134.43465 -2.86031,-35.43555 2.53815,-50.01643 32.25843,-87.12785 11.11159,-13.87492 11.21249,-14.0625 7.56487,-14.0625 -2.69381,0 -22.32586,11.66827 -72.35259,43.00261 -72.76266,45.57505 -79.39863,49.09397 -99.02777,52.51237 -25.84729,4.50127 -78.67997,5.4971 -102.37681,1.92966 -58.23821,-8.76747 -100.79628,-38.22255 -122.97235,-85.11103 -11.83461,-25.02276 -16.15833,-46.94805 -16.23637,-82.33361 -0.0483,-21.89511 0.36026,-27.69113 2.80683,-39.819644 6.3216,-31.3383 20.93263,-66.24414 39.01964,-93.2181801 29.21075,-43.5633999 73.77447,-72.5527509 116.0698,-75.5051009 34.25457,-2.391075 57.2826,4.889613 81.00744,25.611821 14.17196,12.37835 26.41953,32.04497 31.01722,49.8060999 5.76445,22.2684001 2.68523,60.6017001 -6.91747,86.1155601 -3.89768,10.35593 -14.56372,25.501454 -21.88832,31.080934 -6.7613,5.15037 -19.32637,9.67851 -26.85677,9.67851 -15.90159,0 -23.14209,-30.118564 -14.27374,-59.375004 1.87558,-6.1875 4.22199,-14.0625 5.21425,-17.5 0.99226,-3.4375 2.11159,-14.13786 2.48739,-23.77858 l 0.68329,-17.5286 -6.0663,-4.9714001 -6.06632,-4.97141997 -16.2839,0 c -13.3538,0 -17.85838,0.49886997 -25.03391,2.77239997 -23.73756,7.5211301 -46.43349,28.6236301 -58.86001,54.7276001 -8.14236,17.10437 -11.02557,29.51411 -11.0359,47.500004 -0.008,13.13654 0.39275,16.04689 3.22217,23.42694 5.00539,13.05567 10.79443,21.84081 21.67374,32.89088 25.87864,26.28484 52.65216,35.92137 83.43701,30.03125 33.08983,-6.33112 91.98148,-35.80548 133.30865,-66.71892 11.47773,-8.58554 32.25701,-28.362844 33.32058,-31.713864 1.57602,-4.96559 -7.23488,-14.31391 -28.39864,-30.13083 -35.0341,-26.18302 -49.78521,-53.28473 -55.26446,-101.53546 -3.48871,-30.721921 -4.78919,-58.882396 -3.92539,-84.999996 0.92061,-27.8348 1.96591,-33.17744 9.53805,-48.75 6.46784,-13.30146 14.51926,-23.75017 29.49586,-38.27815 24.9484,-24.20109 51.20454,-41.12307 108.32444,-69.81472 20.02765,-10.06 38.6639,-19.75518 41.4139,-21.54483 2.75,-1.78965 10.43384,-8.7908 17.0752,-15.5581 l 12.0752,-12.3042 10.7211,-52.84267 10.72111,-52.84266 5.81057,-10.07381 c 8.51897,-14.76939 11.77726,-15.34187 24.70361,-4.34046 l 4.85678,4.13354 2.92228,19.85803 c 7.81669,53.11756 8.42929,58.77628 8.44234,77.98303 0.0204,30.03746 -5.28975,47.1079 -21.38637,68.75 -15.15463,20.37561 -34.44292,36.12931 -74.69182,61.0045 -40.4529,25.00129 -55.33951,36.43633 -68.13717,52.33909 -12.89713,16.02637 -16.41789,26.74736 -16.31694,49.68643 0.14797,33.627055 8.21916,56.786456 26.661,76.500826 20.03951,21.4223 45.67735,32.6802799 88.41811,38.82577993 12.60793,1.81283997 23.59008,2.23636997 56.875,2.19344997 l 41.25,-0.0532 14.375,-4.77876 c 17.45164,-5.80154 26.20115,-9.3174199 28.9269,-11.6238799 2.00726,-1.6985 1.82935,-6.59424 -0.23963,-6.59424 -0.56163,0 -5.81852,-4.54111 -11.68197,-10.09135 -7.3387,-6.9467 -11.74674,-12.30266 -14.14556,-17.1875 -3.20073,-6.51773 -3.48474,-8.26985 -3.48474,-21.497383 0,-13.699625 0.19566,-14.795863 4.01606,-22.5 4.97518,-10.032813 12.19891,-18.795023 23.17144,-28.106353 4.64062,-3.93805 8.4375,-7.68212 8.4375,-8.32017 0,-0.63805 -2.84839,-5.38123 -6.32976,-10.54039 -3.48138,-5.15918 -6.14594,-10.33689 -5.92128,-11.50605 0.3653,-1.90095 3.003,-2.16154 24.94228,-2.46421 l 24.533773,-0.33848 -0.938573,-4.16147 c -0.51622,-2.28883 -3.17443,-7.48026 -5.90715,-11.53654 -16.32485,-24.23156 -33.77352,-55.62161 -39.23197,-70.5781 -22.86375,-62.64819 1.18214,-122.38302 64.416903,-160.02456 22.57748,-13.43961 51.31484,-22.85807 75.1279799,-24.62265 64.2960601,-4.76442 131.5380671,23.75702 161.4369371,68.47526 15.78505,23.6089 21.72465,43.43049 21.72483,72.5 2.4e-4,35.7428 -12.8081,62.49914 -56.3555,117.72541 -6.87416,8.71773 -12.49847,16.17085 -12.49847,16.5625 0,0.39165 10.125,0.71209 22.5,0.71209 18.7571,0 22.5,0.29964 22.5,1.80122 0,0.99068 -0.55397,2.1436 -1.23105,2.56207 -0.67707,0.41845 -3.55779,4.67731 -6.40157,9.46412 l -5.17054,8.7033 13.80973,13.13988 c 17.39968,16.55566 18.36843,18.695823 18.36843,40.57941 0,13.726526 -0.34526,16.325746 -2.84164,21.392346 -2.65121,5.38087 -14.51742,17.9367 -21.45795,22.70502 -1.67726,1.15232 -2.70624,2.43847 -2.2866,2.85811 1.53325,1.53326 32.10188,0.62954 44.11985,-1.30435 49.83361,-8.01903 95.02991,-28.58579 124.54805,-56.676126 19.98368,-19.01708 27.18054,-32.93605 28.2352,-54.60793 0.95194,-19.56097 -2.266,-28.95354 -20.42184,-59.60761 -21.18372,-35.7663 -25.93011,-52.45106 -23.06728,-81.08736 4.74018,-47.41516 28.99277,-80.00746 67.54721,-90.77461 6.43006,-1.79573 12.68829,-2.26944 30,-2.27079 19.34395,-0.001 22.33272,0.27531 25.83099,2.39239 4.78665,2.89679 6.66901,6.68166 6.66901,13.40936 0,8.20838 -3.11045,11.64596 -21.875,24.17568 -33.51406,22.37846 -47.65854,37.48827 -52.67581,56.27087 -2.00714,7.51391 -2.18673,17.92995 -0.39058,22.65415 0.71974,1.89305 11.63453,13.96405 24.2551,26.82444 34.14015,34.78887 42.00793,45.6827 47.7725,66.14641 3.49279,12.39909 3.1598,53.01174 -0.545,66.469288 -7.1073,25.817062 -20.4728,47.664858 -42.70555,69.808278 -13.76722,13.7119099 -25.46235,22.97620993 -71.33566,56.50858 -9.96875,7.28694 -20.57408,15.68795 -23.56738,18.66891 -5.41566,5.39334 -5.43845,5.45364 -4.64116,12.28382 1.70774,14.62982 9.66931,25.67445 23.56884,32.69566 20.7154,10.464174 37.61801,13.491604 63.12765,11.306794 42.08712,-3.60463 70.81617,-16.405844 85.21717,-37.971384 8.53638,-12.78342 9.7455,-19.31486 10.60138,-57.26995 1.2965,-57.49755 3.95837,-85.415671 10.82612,-113.547146 8.78313,-35.97663 20.26138,-60.0547 39.54213,-82.94785 20.41412,-24.23885 42.50762,-35.20599 78.13012,-38.78355 41.52738,-4.17057 75.21574,8.3498 106.64634,39.63536 32.511,32.36103 55.2684,84.88004 57.6649,133.078036 1.9328,38.86937 -11.3917,77.48848 -34.0477,98.68204 -13.3772,12.51359 -30.9969,18.84825 -48.1099,17.29649 -14.3576,-1.3019 -18.7838,-6.32232 -19.7121,-22.35853 -0.6934,-11.97862 1.6307,-19.15148 8.0247,-24.76541 2.3973,-2.10489 11.0116,-8.28426 19.143,-13.7319401 8.1314,-5.44766997 15.9753,-11.41888 17.4309,-13.26936 4.3755,-5.5624899 5.5339,-12.3774699 4.6452,-27.3274499 -1.4932,-25.12274 -6.6486,-42.640636 -17.4731,-59.373548 -8.9387,-13.817928 -13.2174,-18.516678 -35.9905,-39.524218 -17.63924,-16.27171 -21.73936,-19.45641 -26.63711,-20.68966 -7.33013,-1.84575 -17.65163,-0.81066 -23.94825,2.40164 -7.27413,3.71097 -16.29838,14.1229 -21.07238,24.31262 -8.55762,18.26554 -8.47175,17.10592 -9.27237,125.2874759 l -0.7215,97.5000001 -2.901,8.035764 c -5.813,16.10208 -11.56888,25.17742 -24.51787,38.65772 -29.51838,30.7295 -72.87188,56.86372 -128.5913,77.51707 -25.5217,9.46004 -61.04649,19.3153 -83.74538,23.23258 l -4.75556,0.82068 11.93821,11.2983 c 16.25134,15.38023 33.28569,29.56772 61.3092,51.06289 12.99638,9.96875 26.86124,21.10813 30.81083,24.75418 7.58945,7.00618 14.39125,9.5533 16.83825,6.30557 0.69812,-0.92661 2.004,-4.7785 2.902,-8.55975 3.42474,-14.42236 18.88725,-58.97392 24.87012,-71.65762 20.08938,-42.58945 48.325,-67.4373 85.2955,-75.06164 21.76238,-4.488 50.6115,-3.74373 72.0515,1.85884 45.78851,11.96517 80.61771,51.28736 91.77211,103.61042 3.974,18.64145 4.0501,52.35819 0.15,66.46929 -6.9947,25.30854 -17.747,43.7115 -36.4391,62.36776 -18.6921,18.65626 -37.7394,30.30631 -59.55501,36.42629 -9.66762,2.71209 -11.84913,2.79607 -81.8075,3.14991 -48.94625,0.24756 -72.72525,0.80029 -74.54038,1.73263 -1.466,0.75301 -5.05837,5.66886 -7.98325,10.92411 -12.19037,21.90336 -17.18525,29.46855 -23.238,35.19579 -7.23605,6.84682 -14.1935,9.38392 -22.07973,8.05155 -6.71293,-1.13414 -10.31358,-5.00859 -12.01127,-12.92467 -3.00027,-13.98976 -0.74367,-24.21698 8.23352,-37.31555 6.6373,-9.68444 9.11911,-16.73736 9.11911,-25.91507 0,-6.28894 -2.98399,-11.91204 -6.3213,-11.91204 -4.93784,0 -92.79775,-42.36041 -124.62069,-60.08411 -31.98797,-17.81562 -65.87391,-42.26881 -94.05801,-67.87535 -13.21588,-12.00723 -16.62956,-13.20733 -21.77514,-7.65517 -5.34814,5.77073 -6.35687,12.71487 -6.26309,43.11463 0.074,23.99026 0.48867,29.99729 2.82048,40.86051 7.63555,35.57171 25.27256,69.30494 48.27989,92.34196 12.44686,12.46294 19.88278,17.76038 36.50287,26.00505 29.58005,14.67368 62.47683,23.34759 116.68499,30.76638 10.65625,1.4584 27.53125,3.77644 37.5,5.1512 27.48293,3.79012 53.04525,10.77577 69.375,18.95874 20.784,10.41502 38.6495,27.09912 46.819,43.72297 8.00225,16.28378 10.20013,26.77948 10.92938,52.19319 0.71325,24.85401 -1.13325,37.38636 -8.19738,55.6359 -8.70012,22.47584 -28.37987,46.72629 -46.426,57.20859 -31.60125,18.35589 -80.36811,16.74676 -114.2249,-3.76908 -30.69639,-18.60071 -47.71932,-48.58 -45.31869,-79.81128 2.18824,-28.46823 11.13919,-37.69434 35.49699,-36.58819 8.93131,0.4056 10.55851,0.89401 16.81226,5.04627 4.82982,3.2068 7.72697,6.2561 9.57913,10.08215 3.14654,6.49988 3.2954,11.13014 0.78042,24.27318 -2.94095,15.36912 -2.56057,21.1794 1.66299,25.40297 4.73308,4.73308 18.0636,8.76949 28.9618,8.76949 23.1475,0 46.003,-15.61659 51.8955,-35.45901 2.75625,-9.28143 2.4155,-25.44779 -0.71275,-33.80864 -5.2315,-13.98259 -18.55525,-24.32121 -38.29031,-29.71159 -8.50957,-2.32427 -14.04503,-2.73787 -42.98301,-3.21162 -27.88876,-0.45658 -38.31287,-0.0783 -65,2.35885 -26.43114,2.41375 -39.153,2.8861 -75.53443,2.80455 l -43.75,-0.0981 -11.52814,-3.90188 c -13.9132,-4.7091 -24.29306,-9.83368 -35.97186,-17.75935 -48.652,-33.01713 -88.797647,-98.22331 -105.026447,-170.58818 -3.69463,-16.4745 -3.69701,-16.50696 -5.68809,-77.5 -1.58897,-48.67524 -3.01975,-58.32872 -11.12793,-75.0802 -8.10368,-16.74219 -18.01695,-23.0448 -36.24678012,-23.0448 -21.89415988,0 -36.97198988,9.09191 -51.39198988,30.9893 -7.16449,10.8796 -12.62657,24.53255 -16.75572,41.88239 -5.09033,21.38855 -6.2645,33.47316 -6.2187,64.00331 0.0585,39.02715 1.14457,44.63346 24.33557,125.625 24.65935,86.1196 25.57461,91.17245 25.35954,140 -0.14875,33.7695 -0.32134,36.25974 -3.31351,47.81181 -6.44606,24.88669 -21.77997,52.31944 -42.59076,76.19606 -27.82108,31.91951 -67.006413,55.95951 -104.460183,64.08563 -11.08823,2.40575 -44.44529,3.51924 -56.25,1.87775 z"
     id="path4325" />
  <path
     style="fill:#000000"
     d="m -236.56082,782.75049 c 1.42672,-2.02925 4.00575,-2.41162 20.38338,-3.02262 21.48156,-0.80138 30.4911,-2.7415 45,-9.69013 36.30819,-17.38908 56.91846,-57.59975 65.01237,-126.83925 2.26227,-19.35255 1.85814,-29.12774 -2.00318,-48.45424 -5.33007,-26.67766 -13.26849,-47.41467 -53.94657,-140.92076 -32.64407,-75.03848 -47.88437,-127.92812 -54.14558,-187.90578 -1.08784,-10.42071 -2.10458,-19.07342 -2.2594,-19.22825 -0.15482,-0.15482 -8.69113,3.86066 -18.96957,8.92327 -28.58354,14.07876 -46.27598,28.76902 -53.54697,44.46076 -3.35683,7.24447 -3.52474,26.62304 -0.33576,38.75 4.33353,16.4795 10.06267,26.20158 47.14331,80 14.37474,20.85559 26.22666,43.71024 30.14237,58.125 2.3318,8.58401 2.73008,13.45147 2.81272,34.375 0.11,27.85195 -1.58933,38.24379 -8.69969,53.20127 -11.48164,24.15297 -27.45779,37.33694 -75.77836,62.53443 -15.35913,8.00924 -29.19131,15.71827 -30.73819,17.13117 -1.54687,1.41291 -2.81078,4.01774 -2.80866,5.78852 0.006,5.34482 13.2958,62.7025 17.88762,77.2036 2.35784,7.44611 4.68225,15.87797 5.16536,18.73746 0.4831,2.85948 2.66842,8.19461 4.85624,11.85585 6.23776,10.43857 16.9678,15.69158 49.58694,24.2752 13.30951,3.5025 13.27199,3.50075 15.24162,0.6995 z"
     id="path4323" />
  <path
     style="fill:#000000"
     d="m -425.95539,608.76455 c 13.454,-1.80105 20.60336,-4.3326 24.8886,-8.81293 3.26613,-3.41483 3.62341,-4.59717 3.4839,-11.52909 -0.32909,-16.35159 -12.03252,-59.03113 -21.65599,-78.97404 -10.78676,-22.35362 -16.76223,-25.63604 -38.49653,-21.1467 -29.90089,6.1762 -56.60142,29.45308 -66.04093,57.5729 -3.85393,11.48065 -4.53041,28.79114 -1.46667,37.53058 4.54823,12.97404 18.62458,22.63878 36.86111,25.30862 10.51597,1.53955 51.05855,1.57245 62.42651,0.0506 z"
     id="path4321" />
  <path
     style="fill:#000000"
     d="m 585.07256,382.07746 c 13.28625,-3.56151 32.29412,-13.81514 41.47513,-22.37337 15.8045,-14.73263 21.64988,-27.35436 21.64988,-46.74786 0,-34.40283 -20.02589,-58.59043 -53.75001,-64.92 -12.32162,-2.31262 -21.1245,-1.74113 -29.37113,1.90676 -7.4595,3.2997 -21.27137,16.64519 -29.4075,28.41461 -12.29575,17.78644 -24.64712,47.20489 -30.02037,71.50234 -3.294,14.89534 -3.18775,20.33564 0.46437,23.76657 3.958,3.71843 14.4085,7.20667 26.45963,8.83198 5.5,0.74176 11.6875,1.58207 13.75,1.86736 7.7315,1.06939 31.52275,-0.31104 38.75,-2.24839 z"
     id="path4276" />
</svg>
